<svg xmlns="http://www.w3.org/2000/svg" width="1024" height="1024"><path fill="#FEFEFE" d="M0 0h1024v1024H0z"/><path fill="#2E91BC" d="M395.148 332.51a345.378 345.378 0 0 1 4.239 4.017c2.594 2.523 2.594 2.523 5.508 4.79 3.83 3.15 6.94 6.882 10.105 10.683l1.58 1.896c24.672 30.168 41.24 68.99 41.658 108.354l.03 2.326c.176 17.513-.23 34.286-4.268 51.424l-.535 2.398C447.982 542.485 436.045 562.987 422 583l2.457.156c12.775 1.309 19.887 8.14 29.02 16.567 2.564 2.314 5.205 4.488 7.898 6.652 20.78 16.937 20.78 16.937 21.984 26.469.534 11.737-4.588 19.676-12.168 28.187-11.79 12.5-25.422 25.671-43.62 26.313-29.561.436-58.9-15.668-81.051-34.235l-1.728-1.418a315.46 315.46 0 0 1-4.66-3.953c-4.053-2.25-6.818-1.795-11.132-.738l-2.24.536c-2.368.6-4.72 1.245-7.073 1.902C285.715 658.618 250.33 656.95 217 646l-2.194-.715C192.66 637.921 172.618 625.164 155 610c-1.082-.855-2.166-1.71-3.25-2.562-2.952-2.617-5.432-5.423-7.98-8.426-1.596-1.815-3.251-3.432-5.02-5.074-31.715-31.288-45.779-79.632-46.12-122.944-.053-20.75 3.02-39.235 9.37-58.994l.699-2.175C108.154 393.278 116.567 377.917 127 364l1.188-1.632C155.963 324.273 197.995 299.808 244 291l3.809-.742c51.368-8.073 108.527 7.177 147.34 42.252"/><path fill="#032F45" d="M395.148 332.51a345.378 345.378 0 0 1 4.239 4.017c2.594 2.523 2.594 2.523 5.508 4.79 3.83 3.15 6.94 6.882 10.105 10.683l1.58 1.896c24.672 30.168 41.24 68.99 41.658 108.354l.03 2.326c.176 17.513-.23 34.286-4.268 51.424l-.535 2.398C447.982 542.485 436.045 562.987 422 583l2.457.156c12.775 1.309 19.887 8.14 29.02 16.567 2.564 2.314 5.205 4.488 7.898 6.652 20.78 16.937 20.78 16.937 21.984 26.469.534 11.737-4.588 19.676-12.168 28.187-11.79 12.5-25.422 25.671-43.62 26.313-29.561.436-58.9-15.668-81.051-34.235l-1.728-1.418a315.46 315.46 0 0 1-4.66-3.953c-4.053-2.25-6.818-1.795-11.132-.738l-2.24.536c-2.368.6-4.72 1.245-7.073 1.902C285.715 658.618 250.33 656.95 217 646l-2.194-.715C192.66 637.921 172.618 625.164 155 610c-1.082-.855-2.166-1.71-3.25-2.562-2.952-2.617-5.432-5.423-7.98-8.426-1.596-1.815-3.251-3.432-5.02-5.074-31.715-31.288-45.779-79.632-46.12-122.944-.053-20.75 3.02-39.235 9.37-58.994l.699-2.175C108.154 393.278 116.567 377.917 127 364l1.188-1.632C155.963 324.273 197.995 299.808 244 291l3.809-.742c51.368-8.073 108.527 7.177 147.34 42.252M232 310l-3.688.973C201.197 318.316 178.395 332.943 158 352l-2.5 2.336C138.607 370.649 126.588 391.274 118 413l-1.422 3.543c-14.93 40.78-11.255 87.251 6.876 126.356 8.941 18.55 20.35 34.246 34.546 49.101l2.195 2.34c1.642 1.886 1.642 1.886 3.805 1.66v2a96.601 96.601 0 0 0 5.875 4.938l1.894 1.472c22.75 17.307 48.276 28.142 76.231 33.59l3.445.691c23.569 4.061 48.759 1.046 71.555-5.691-3.3-4.054-6.771-7.79-10.514-11.43-6.7-6.533-12.564-13.387-18.186-20.86a248.288 248.288 0 0 0-3.855-4.92C283.931 587.608 278.3 579.01 273 570l-1.086-1.834C257.071 542.756 246.046 509.414 253 480c2.272-8.035 6.48-13.821 12-20l1.652-1.867c9.245-9.81 21.158-19.184 35.035-19.695 6.564.302 11.308 1.53 15.998 6.262 4.072 4.669 7.639 9.477 11.002 14.675l3.098 4.723 1.59 2.434a682.66 682.66 0 0 0 4.996 7.464l1.652 2.446c1.045 1.546 2.093 3.09 3.144 4.632 4.155 6.177 6.845 11.247 5.833 18.926-2.711 12.273-13.636 21.38-23 29 .448 5.25 3.25 8.684 6.25 12.813l1.617 2.252c11.476 15.816 24.345 30.18 38.07 44.06l2.226 2.265 2.114 2.118 1.883 1.895c1.856 1.61 3.601 2.607 5.84 3.597 13.454-9.909 25.26-21.726 34-36l2.074-3.36c8.06-13.398 13.727-27.61 17.926-42.64l.902-3.227c6.049-23.772 6.707-50.916 1.098-74.773l-.618-2.713c-6.963-30.062-19.997-55.8-41.382-78.287l-1.453-1.536c-28.856-30.304-70.383-50.358-112.516-51.714-17.95-.307-34.76 1.419-52.031 6.25"/><path fill="#2D90BC" d="m151 359 2 1a55.013 55.013 0 0 1 1 7l.2 2.078c.468 8.987-3.106 16.309-7.762 23.797-4.734 7.821-7.948 17.885-6.438 27.125.871 3.311 1.85 6.58 2.848 9.855 2.105 7.232 3.354 14.69 4.759 22.083.45 2.357.917 4.71 1.393 7.062l4 1-.656-2.852-.844-3.773-.844-3.727c-.597-3.32-.78-6.287-.656-9.648l4 1 .262 2.055c.773 5.124 1.725 9.295 4.3 13.82 2.222 4.043 2.763 7.146 2.938 11.75.282 5.984 1.203 10.057 5.5 14.375 4.06 3.085 7.936 5.115 13.063 5.438 4.638.662 6.49 2.187 10.007 5.101 2.037 1.691 2.037 1.691 5.368 2.711 6.018 2.957 11.074 8.425 13.824 14.57L210 513h2v2c3.892 1.297 6.894 1.13 11 1l2-1c-.65 6.284-1.422 11.632-5 17h-2c-2.23 6.69-3.032 15.61.003 22.167 2.477 4.042 5.424 7.677 8.571 11.214 1.403 1.592 2.696 3.243 4 4.916 2.39 2.663 3.738 3.633 7.051 4.765 2.794.959 4.117 1.619 5.99 3.934 1.915 4.153 1.741 7.707 1.643 12.223l-.02 2.71c-.024 2.857-.067 5.714-.113 8.571-.047 3.74-.085 7.48-.117 11.219l-.026 2.714A182.268 182.268 0 0 0 246 637c-14.837-1.57-28.65-6.493-42-13l-2.073-1c-13.59-6.63-26.668-14.844-37.927-25v-2l-1.723-.746c-24.867-13.692-41.086-53.077-48.652-78.692C101.988 474.32 107.035 429.428 128 391c5.315-9.116 11.241-17.89 18-26l1.535-1.867A483.438 483.438 0 0 1 151 359"/><path fill="#61BEE4" d="M225 313v3h2l.688 1.813c1.19 2.413 1.19 2.413 3.937 3.562L234 323c.65 4.266-.357 7.107-2 11 9.568.98 9.568.98 18.125-2.437L253 329c2.943-1.026 5.65-1.108 8.75-1.062l2.422.027L266 328v5l-3 1-1 2 2.688.813c3.228 1.157 5.62 2.066 8.312 4.187.559 2.996.559 2.996.438 6.438l-.067 3.433c-.344 2.905-.862 4.662-2.371 7.129h-8l-.125-1.875L262 354c-2.996-1.305-2.996-1.305-6-2l1-11a2671.73 2671.73 0 0 0-5.687 2.813l-3.2 1.582c-4.464 2.302-8.271 4.588-11.925 8.043C232.345 356.878 227.4 361 222 361c-.422 4.598-.431 8.581 1 13 3.19 2.362 6.375 3.785 10.008 5.367C236 381 236 381 237.305 383.195c.507 2.243.507 2.243.695 5.805 2.45-.112 2.45-.112 5-1 1.343-2.179 1.343-2.179 2.063-4.937l.968-3L247 377a254.09 254.09 0 0 1 2.063-5.437l.91-2.372c1.091-2.328 2.419-4.191 4.027-6.191 4.246 1.797 8.908 4.816 11 9l1.977-.5c2.814-.531 5.169-.784 8.023-.5 2.81 2.099 4.222 5.023 6 8 1.205 1.605 2.41 3.21 3.621 4.811 5.968 8.038 5.968 8.038 5.942 13.002L290 400l2.438.75C295 402 295 402 295.938 404l.062 2-2 2c-3.81-.324-5.784-.856-9-3-.687-2.625-.687-2.625-1-5-3.792-.087-7.583-.14-11.375-.187l-3.273-.077-3.125-.029-2.889-.048L261 400l-2 3 3.438-.062C266 403 266 403 267 404c.04 1.666.043 3.334 0 5h3v2h2v4l-2.781.008c-7.36.232-12.251.62-17.766 5.715C250 422 250 422 248 422l-1 3c-5.222 3-5.222 3-8 3l.176 2.012c.368 7.213.368 7.213-2.238 10.926-3.26 2.288-6.245 3.599-9.938 5.062-2.3 1.863-2.3 1.863-2.195 4.82l.07 3.305.055 3.32L225 460l-4 2v2h-2v-3h-2a150.052 150.052 0 0 1-4-6c-1.017-1.246-1.017-1.246-3.145-1.062l-5.312.125C202 454 202 454 200.16 453.535c-3.26-.807-6.569-.905-9.91-1.098l-2.113-.13c-1.712-.106-3.425-.207-5.137-.307-3.256 7.733-4.23 15.677-3 24 2.534 3.412 3.465 3.92 7.75 4.563 4.286-.184 7.008-1.953 10.39-4.47C200 475 200 475 204 475c-.481 5.774-2.185 9.959-5 15h6v2h5l2 17 4 1 3-2c2.688.375 2.688.375 5 1 .125 2.375.125 2.375 0 5-2 2-2 2-3.875 2.23l-2.125-.043-2.125-.019C214 516 214 516 212 515v-2h-2c-1.332-1.54-1.332-1.54-2.812-3.625l-1.63-2.215a633.735 633.735 0 0 1-3.808-5.348c-3.195-3.268-6.29-4.769-10.406-6.652C189 494 189 494 186.5 491.812c-2.685-1.946-4.1-2.223-7.312-2.75-6.84-1.19-11.954-3.912-16.125-9.562-2.62-4.581-2.495-9.096-2.692-14.266-.484-4.219-2.086-7.089-4.16-10.734-2.069-4.271-2.616-8.827-3.211-13.5l-3-1c.309 1.959.622 3.917.938 5.875l.527 3.305c.39 2.758.39 2.758 1.535 4.82.04 2 .043 4 0 6-1.867-.137-1.867-.137-4-1-3.224-6.796-4.353-14.496-5.43-21.887-.65-3.551-1.643-6.91-2.695-10.363-3.13-10.726-2.472-21.366 3-31.383a323.92 323.92 0 0 1 3.203-5.405c4.882-8.11 7.36-15.676 5.49-25.15-.848-4.45-.997-6.16 1.58-10.078a81.281 81.281 0 0 1 3.227-2.984l1.773-1.65A202.419 202.419 0 0 1 165 345l1.982-1.675c13.5-11.201 28.275-20.11 44.393-27.012l2.396-1.03c3.862-1.578 6.975-2.732 11.229-2.283"/><path fill="#FBFCFD" d="M305 453c6.24 5.4 10.597 13.1 15.063 19.938l2.064 3.13c1.335 2.025 2.666 4.051 3.993 6.08a518.252 518.252 0 0 0 6.786 9.996c1.67 2.832 1.802 4.67 1.094 7.856-1.919 3.375-3.973 6.524-7 9h-2v2c-1.54 1.48-1.54 1.48-3.625 3.188-7.663 6.113-7.663 6.113-11.312 14.812.76 10.868 11.58 22.724 17.937 31l1.274 1.668c5.314 6.94 10.76 13.67 16.683 20.105a234.782 234.782 0 0 1 5.48 6.227c7.478 8.543 15.672 15.963 24.563 23l2.848 2.305c6.547 5.662 6.547 5.662 14.828 7.215 5.051-1.13 8.615-5.11 12.324-8.52l1.682-1.54a684.202 684.202 0 0 0 7.028-6.51c5.14-4.84 5.14-4.84 9.54-5.263 7.37.615 11.813 6.096 17.05 10.895 2.63 2.355 5.324 4.582 8.075 6.793A1234.68 1234.68 0 0 1 455 621l1.639 1.354a326.046 326.046 0 0 1 4.986 4.271l1.58 1.306c2.647 2.35 3.799 4.08 4.88 7.467-.17 7.176-5.008 12.056-9.71 17.04l-1.593 1.7c-9.195 9.646-18.86 17.766-32.657 18.174-22.5-.3-45.652-14.526-63.125-27.312l-3.18-2.305c-7.625-5.686-14.547-11.94-21.433-18.496a179.557 179.557 0 0 0-7.887-7.074c-3.203-2.762-5.946-5.766-8.676-8.992-1.924-2.25-3.932-4.403-5.949-6.57-24.914-27.716-50.617-67.509-49.258-106.282 1.097-9.399 3.948-17.308 10.383-24.281l1.777-1.98C283.76 461.638 294.09 451.15 305 453"/><path fill="#053045" d="M656.133 587.254c9.672 6.748 15.315 15.258 17.867 26.746.119 2.78.188 5.535.203 8.316l.017 2.46c.01 1.719.016 3.438.02 5.157.01 2.596.04 5.192.072 7.788.09 13.87-1.067 26.89-11.316 37.318-10.149 8.533-21.082 10.076-33.92 9.189-9.943-1.09-18.177-6.382-24.389-14.04-5.529-7.843-6.832-16.917-6.925-26.313l-.025-2.374c-.014-1.657-.024-3.315-.032-4.972a459.253 459.253 0 0 0-.062-5.015c-.253-14.276.617-27.178 10.794-38.139L611 591l2.125-2.062c12.01-8.095 30.355-9.123 43.008-1.684"/><path fill="#61BEE3" d="m411 434 1.102 2.266c3.934 7.75 3.934 7.75 10.898 12.734l2.625 1.313c2.702.782 3.8.767 6.375-.313l1.938-1.562c2.53-1.764 4.042-1.69 7.062-1.438 1.979 7.435 2.35 14.386 2.313 22.063l-.015 3.716C442.799 512.403 430.833 553.443 402 582a99.056 99.056 0 0 1-4 3c.942-10.898 5.862-20.52 11.091-29.973.984-2.195 1.216-3.794 1.323-6.187l.118-2.39.093-2.513.108-2.57c.068-1.686.13-3.372.188-5.059.067-1.966.153-3.932.243-5.898l.086-2.91.078-2.469c-.19-2.102-.19-2.102-1.55-3.793-3.47-2.416-7.728-1.607-11.778-1.238a68.983 68.983 0 0 0-4 1c-9.127 2.391-9.127 2.391-14 1-6.635-4.763-14.305-11.61-18-19-.599-5.548.117-9.51 2.352-14.645.867-3.152.657-5.969.523-9.23-.206-10.138 3.757-15.82 10.477-22.965 2.976-3.9 4.27-8.5 5.648-13.16h3v-2c.785-.182 1.57-.364 2.379-.55 5.827-1.395 11.196-2.91 16.621-5.45 2.928-.976 4.956-1.082 8-1"/><path fill="#043145" d="M692 584c49.615 0 49.615 0 61 11 8.75 8.887 10.562 20.836 10.498 32.883l-.031 2.055c-.03 2.06-.021 4.119-.008 6.18-.019 12.503-1.39 24.847-9.459 34.882-17.102 16.394-38.994 12-62 12z"/><path fill="#61BEE3" d="M249 489h1l.104 1.762C252.874 534.66 269.483 570.227 297 604l1.31 1.627c7.61 9.418 16.02 17.932 24.69 26.373-20.84 10.718-52.527 10.91-75 6l-2-1c-3.457-11.9-2.112-25.165-1.884-37.393.049-2.796.079-5.592.107-8.388l.066-2.582c.04-4.716-.195-7.815-3.289-11.637-2.03-1.184-2.03-1.184-4.312-1.875-5.146-2.118-7.435-4.717-10.688-9.125l-2.59-2.969c-5.96-7.104-8.659-12.816-8.332-22.2.447-5.07 1.555-7.633 5.332-10.886 2.722-3.33 3.324-7.576 4.208-11.705 1.367-6.152 1.367-6.152 4.382-8.24h2v-2c6.139-3.336 10.116-3.037 17-2z"/><path fill="#052F43" d="M702.57 349.613c8.01 4.572 14.344 11.253 16.974 20.246.472 2.214.603 4.213.633 6.475l.039 2.571.022 2.76.025 2.87c.014 2.005.024 4.01.032 6.016.012 2.039.032 4.077.062 6.116.043 2.957.059 5.914.069 8.872l.053 2.722c-.029 8.453-2.707 16.37-7.862 23.141C709.28 434.7 705.163 436.9 701 439l-2.266 1.148c-3.847 1.199-7.475 1.193-11.484 1.164l-2.437-.012c-9.383-.18-16.623-2.394-23.594-8.984-7.308-7.694-9.847-16.087-9.75-26.566l-.012-2.845c-.003-1.97.005-3.94.022-5.909.02-2.989 0-5.976-.026-8.965.003-1.927.008-3.854.016-5.781l-.025-2.665c.145-9.756 3.6-17.541 10.263-24.605 10.88-9.397 27.792-11.028 40.863-5.367"/><path fill="#053045" d="M736 348c43.98 0 43.98 0 52.305 8.055 4.614 5.295 6.396 10.316 6.082 17.355-1.06 7.1-3.716 13.113-9.387 17.59h-2v2l1.688.688c6.159 3.495 9.302 8.697 11.312 15.312 1.112 7.168-.406 14.22-4.512 20.203-4.667 5.664-9.283 8.996-16.488 10.797h-39z"/><path fill="#042F43" d="M909.82 588.098c5.248 3.89 8.737 9.29 9.817 15.66L920 607c-2.436.839-4.873 1.671-7.312 2.5l-2.092.723C907.61 611.233 905.173 612 902 612l-.734-1.645c-2.56-5.576-2.56-5.576-7.266-9.355-3.62-1.206-6.192-1.323-10-1-2.608 1.497-4.87 2.87-7 5-.351 4.212-.547 6.88 1.313 10.688 5.761 4.957 13.19 7.134 20.25 9.687C908.64 629.229 915.918 634.323 921 644c2.635 7.906 1.852 17.324-1.687 24.82-4.933 8.192-12.27 11.822-21.145 14.793-11.503 2.052-23.654.918-33.727-5.156-6.176-4.432-10.516-9.471-12.254-16.957L852 659c6.232-2.47 12.513-4.319 19-6l.883 2.082c2.547 5.63 2.547 5.63 6.742 10.043 6.105 1.583 11.878 1.722 17.875-.312 2.866-2.078 4.134-3.549 5.5-6.813.54-3.709.424-5.35-1.637-8.508-2.73-2.88-4.932-3.92-8.613-5.367l-3.742-1.527L884 641c-22.472-9.007-22.472-9.007-27.324-20.164-2.922-7.939-2.212-14.903 1.133-22.512 3.762-7.34 9.69-11.758 17.402-14.441 11.591-2.7 24.306-1.998 34.61 4.215"/><path fill="#042E43" d="M782 584h58v18h-38v22h31v17h-32v24h40v18h-59zM832.95 347.886l2.523.016 2.724.01 2.866.025 2.876.014c2.354.012 4.707.028 7.061.049 16.698 54.8 16.698 54.8 23.063 76.375l.633 2.138c.574 1.94 1.144 3.881 1.714 5.823l.942 3.205C878 438 878 438 878 440h-18l-2.5-7.813-.791-2.448c-.953-3.016-1.709-5.558-1.709-8.739h-29l-2 11-3 8h-18c6.729-23.225 13.479-46.443 20.456-69.594.571-1.896 1.141-3.793 1.71-5.69a3655.13 3655.13 0 0 1 2.385-7.9l.711-2.373c1.949-6.397 1.949-6.397 4.687-6.557"/><path fill="#042F45" d="M803 469h15c2.867 2.972 3.572 4.314 5 8a486.468 486.468 0 0 0 2.543 4.987c1.637 3.169 3.197 6.375 4.77 9.575.952 1.933 1.905 3.865 2.862 5.796.876 1.77 1.748 3.54 2.62 5.312 3.307 6.492 6.776 12.901 10.205 19.33l1-53h16v87h-17l-3.656-7.129-3.595-7-2.455-4.786c-1.19-2.322-2.383-4.643-3.575-6.964l-1.068-2.085C827.85 520.644 823.913 513.337 820 506l-1 50h-16z"/><path fill="#042E43" d="M564.438 351.441c6.631 4.702 10.83 10.568 12.562 18.559a937.151 937.151 0 0 1-7.312 2.563l-2.092.748c-5.256 1.802-5.256 1.802-8.596.689l-1.375-3.375c-1.34-3.588-1.34-3.588-3.625-5.562-5.934-2.102-11.787-2.09-17.5.562-3.866 3.672-5.619 7.293-5.904 12.601-.026 1.61-.035 3.22-.03 4.829l-.015 2.607c-.007 1.814-.006 3.627.003 5.441.008 2.757-.02 5.512-.052 8.268-.002 1.77-.001 3.54.002 5.309l-.034 2.469c.068 5.674 1.268 10.14 4.53 14.851 4.629 3.445 9.421 3.75 15 3 3.636-1.414 6.557-2.914 9-6 1.003-3.008 1.303-5.538 1.563-8.687L561 405h-15v-14h33l.25 11.813.11 3.651c.106 10.397-2.106 19.184-9.442 26.817-8.012 7.18-16.296 9.173-26.887 8.973-10.916-.914-17.851-5.736-25.199-13.547-4.707-6.955-5.29-14.354-5.266-22.55l-.015-3.059c-.007-2.12-.006-4.242.003-6.363.008-3.226-.02-6.45-.052-9.676-.002-2.072-.001-4.144.002-6.215l-.034-2.89c.095-9.246 3.198-16.382 9.464-23.161 11.457-9.941 29.577-10.996 42.504-3.352"/><path fill="#053045" d="M566.676 585.75c7.826 4.21 12.578 9.07 16.324 17.25.66 2.809.66 2.809 1 5-12.485 5.556-12.485 5.556-19 6l-.883-2.082c-2.559-5.68-2.559-5.68-6.867-10.043-5.522-1.487-10.15-1.628-15.562.313-3.933 2.652-6.187 5.309-7.688 9.812a67.1 67.1 0 0 0-.161 4.193l-.03 2.549-.012 2.746-.017 2.837c-.01 1.98-.016 3.962-.02 5.943-.01 3.022-.041 6.044-.072 9.066-.007 1.926-.012 3.853-.016 5.78l-.038 2.727c.022 5.99.931 10.217 4.866 14.971 4.669 3.697 11.92 2.662 17.5 2.188 3.645-1.508 5.263-2.514 7.016-6.047.76-1.949 1.383-3.95 1.984-5.953 2.605.644 5.209 1.29 7.813 1.938l2.236.552c3.022.752 5.996 1.525 8.951 2.51-.381 7.437-4.983 13.405-10.312 18.313-9.846 7.876-21.55 8.777-33.688 7.687-3.431-.827-6.061-2.069-9-4l-2.102-1.32c-8.956-6.139-13.61-14.134-15.898-24.68-.58-5.817-.494-11.662-.412-17.5.037-2.693.041-5.384.04-8.076.01-1.74.022-3.478.036-5.217l.007-2.396c.184-11.008 2.966-20.334 10.516-28.561 11.232-10.615 29.526-12.658 43.489-6.5"/><path fill="#052E43" d="M602 469h19a65796.58 65796.58 0 0 1 9.133 30.037c2.632 8.652 5.254 17.306 7.867 25.963l.586 1.938c1.332 4.408 2.656 8.818 3.976 13.23l1.051 3.478.953 3.198.842 2.808C646 552 646 552 646 555h-17c-4-13.625-4-13.625-4-17h-27l-3 12-2 5h-16c1.54-8.632 3.937-16.934 6.465-25.316l1.315-4.4c.914-3.057 1.831-6.114 2.751-9.17 1.172-3.894 2.338-7.79 3.503-11.686 1.121-3.749 2.245-7.496 3.368-11.244l.638-2.13c.604-2.014 1.21-4.027 1.815-6.04l1.038-3.455c1.308-4.206 2.714-8.38 4.107-12.559"/><path fill="#042F44" d="M925.547 473.695c5.698 4.6 8.407 9.322 10.453 16.305-2.29.837-4.582 1.67-6.875 2.5l-1.973.723C922.227 495 922.227 495 920 495l-.734-1.68-1.016-2.195-.984-2.18c-1.55-2.381-2.592-3.019-5.266-3.945-4.8-.55-9.402-.533-14 1-5.382 5.382-5.361 12.37-5.413 19.573.002 1.42.01 2.842.022 4.263.016 2.16 0 4.317-.02 6.476-.01 7.117.082 13.284 3.411 19.688 3.347 3.188 5.976 4.247 10.5 4.438 4.116-.208 7.057-1.06 10.5-3.438 3.832-4.36 3.629-9.435 4-15h-14v-13h31l.188 9.875.082 3.046c.088 9.744-1.978 18.309-8.696 25.634-6.477 6.214-14.272 8.642-23.136 8.883-9.734-.38-16.411-2.414-23.524-9.25-6.352-7.26-7.07-15.004-7.152-24.293l-.025-2.665c-.014-1.858-.024-3.717-.032-5.575a589.756 589.756 0 0 0-.062-5.658c-.336-21.47-.336-21.47 6.216-30.583 12.434-11.765 28.838-14.604 43.688-4.719"/><path fill="#052E42" d="M560.875 473.813c6.722 4.825 8.082 9.014 10.125 17.187l-16 5-2.832-6.836C551.056 486.7 551.056 486.7 548 485c-5.558-.752-10.403-1.086-15.125 2.125-4.617 7.079-4.215 14.421-4.19 22.56.002 2.177-.021 4.353-.046 6.53-.068 11.926-.068 11.926 5.423 22.285 4.324 2.208 8.18 2.127 12.938 1.5 3.05-1.103 4.405-1.91 5.96-4.758.758-1.715 1.407-3.477 2.04-5.242 5.569.48 10.67 1.3 16 3-.28 6.577-2.683 11.053-7 16-7.888 6.62-15.329 8.49-25.527 8.309-8.42-.749-14.89-5.094-20.473-11.309-5.224-7.558-6.16-14.113-6.238-23.105l-.025-2.665c-.014-1.858-.024-3.717-.032-5.575a589.756 589.756 0 0 0-.062-5.658c-.343-21.878-.343-21.878 6.607-31.31 12.16-11.883 28.336-12.77 42.625-3.875"/><path fill="#033146" d="M888 348h18v76h32v17h-50z"/><path fill="#063349" d="M593 348h18v76h31v17h-49z"/><path fill="#FBFCFC" d="M643.688 601.188c5.292 2.896 8.543 6.02 10.312 11.812.305 2.986.328 5.957.336 8.957l.02 2.612c.01 1.82.015 3.639.015 5.459.004 2.765.04 5.529.078 8.294.006 1.774.01 3.548.012 5.323l.043 2.478c-.045 5.737-1.297 10.079-4.504 14.877-5.267 5.01-9.877 5.426-16.918 5.332-4.793-.516-7.635-2.036-11.082-5.332-5.415-7.27-4.575-16.504-4.467-25.103.03-2.523.021-5.045.008-7.569.006-1.622.015-3.245.025-4.867l-.008-2.258c.127-7.123 2.297-13.058 7.442-18.203 6.507-3.629 11.722-4.056 18.688-1.812"/><path fill="#62BFE4" d="M334 314c1.739 1.592 1.739 1.592 3 3-.956 1.939-1.915 3.876-2.875 5.813l-1.617 3.269c-2.546 4.927-4.417 6.736-9.508 8.918h-3l-.254 1.816c-.966 2.829-2.207 3.505-4.683 5.122-5.96 4.28-6.354 9-7.598 15.953C307 360 307 360 306 361c-7.325.473-7.325.473-9.875-1.312-2.004-3.007-3.426-5.29-4.195-8.813l-.528-2.39-.527-2.485-.55-2.484c-.71-3.264-1.325-6.164-1.325-9.516l-2.437.063C284 334 284 334 283 333c-.32-3.846.404-6.51 2-10l-1.75-.75C281 321 281 321 279.313 319c-2.96-2.56-5.492-2.89-9.29-3.508C268 315 268 315 266 313c-.125-3.625-.125-3.625 0-7h-6v-1c22.641-4.688 52.975-.693 74 9"/><path fill="#042E44" d="M713 469h17v71h31v15h-48z"/><path fill="#022C3F" d="M656 469h17v71h30v15h-47z"/><path fill="#FCFDFD" d="M692 363c5.175 2.625 8.189 5.629 10.09 11.186.934 3.916 1.25 7.583 1.281 11.584l.027 2.185a644.9 644.9 0 0 1 .028 4.55c.011 2.292.06 4.58.111 6.872.094 8.357-.218 15.733-5.537 22.623-4.503 3.92-9.167 3.491-14.895 3.355-5.21-.596-7.473-2.498-10.918-6.418-1.833-2.99-2.316-5.513-2.364-8.946l-.039-2.428-.022-2.614-.025-2.701c-.014-1.888-.024-3.775-.032-5.662a922.749 922.749 0 0 0-.105-8.63c-.01-1.836-.019-3.671-.026-5.507l-.053-2.595c.02-5.457.867-8.515 4.479-12.854 5.178-4.919 11.2-5.016 18-4"/><path fill="#62BFE4" d="M410 373c11.279 10.635 18.214 26.526 23.375 40.938l.76 2.114c1.485 4.317 2.356 8.41 2.865 12.948h-5l-1.062-2.437C426.915 418.649 422.27 413.337 414 410c2.109 5.272 5.177 8.265 9.453 11.973C425 424 425 424 424.734 426.746L424 429h-3l-.16-2.207c-1.15-3.826-3.136-5.074-6.277-7.48l-2.997-2.325L409 415l-2-2c-1.988-.185-1.988-.185-4 1a63.922 63.922 0 0 0-4 6.625l-2 3.664a409.021 409.021 0 0 0-3.035 5.698c-2.636 4.903-2.636 4.903-5.965 6.013v-2l-2.75-.187C382 433 382 433 379.625 431.188c-2.504-4.913-1.936-9.777-1.625-15.188 2.709-1.354 5.01-1.065 8-1l-.875-1.793-1.125-2.394-1.125-2.356c-.985-2.766-1.292-4.546-.875-7.457 1.54-2.035 1.54-2.035 3.625-4.062 3.45-3.578 5.268-6.715 7.125-11.313 1.703-3.736 2.408-5.26 6.219-6.914 3.281-.711 3.281-.711 6.422-1.086 2.763-.348 2.763-.348 3.968-2.687z"/><path fill="#FBFCFD" d="M712 602c19.432 0 19.432 0 25.75 5.313 4.365 5.213 5.708 9.715 5.648 16.43l.01 2.203a481.23 481.23 0 0 1-.017 4.594c-.016 2.322 0 4.642.02 6.964-.003 1.496-.007 2.992-.013 4.488l.019 2.072c-.079 5.478-1.078 11.197-4.727 15.47C730.66 666.699 722.75 665 712 665z"/><path fill="#013047" d="M771 469h17v87h-17z"/><path fill="#2F91BB" d="M292 599c3.554 3.453 6.735 7.031 9.875 10.875 6.53 7.876 13.802 14.995 21.125 22.125-14.966 7.698-33.299 8.07-49.75 8.125l-2.978.014c-5.517-.012-10.814-.324-16.272-1.139l3-1c.771-2.138.771-2.138 1.25-4.687 1.52-5.574 3.924-8.253 8.75-11.313l3.188-1.562c3.312-1.693 4.504-3.536 6.812-6.438 3.595-3.028 7.354-5.847 11.203-8.543 2.294-1.86 2.899-3.687 3.797-6.457"/><path fill="#F9FBFC" d="m754 401 8.188-.25 2.551-.11c3.937-.058 5.83.087 9.25 2.25 3.826 4.013 3.399 7.826 3.366 13.18-.355 2.93-.355 2.93-2.668 6.118-4.437 2.992-8.216 2.937-13.375 2.875L754 425z"/><path fill="#1B3040" d="M771 469h17v87h-17zm3 3v81h12v-81z"/><path fill="#F3F9FA" d="m753 363 7.688-.25 2.393-.11c3.824-.06 5.546.118 8.856 2.262 3.146 3.2 3.94 4.985 4.438 9.473-.447 4.318-1.607 6.318-4.375 9.625-3.644 2.552-7.482 2.23-11.75 2.125L753 386z"/><path fill="#081D2D" d="M888 348h17v76h-1v-74l-13 1-1 88h47v-14h-31v-1h32v17h-50z"/><path fill="#021528" d="M593 348h17v76h-1v-74l-13 1v88h44l1-14h-30v-1h31v17h-49z"/><path fill="#F3F8FA" d="M840 371c2.157 3.235 2.922 5.826 3.945 9.566l.53 1.924c.367 1.338.732 2.677 1.094 4.017.555 2.053 1.12 4.104 1.685 6.155C850 402.701 850 402.701 850 405h-19c2.797-11.396 5.811-22.708 9-34"/><path fill="#63C0E7" d="M385 346c3.903 1.587 6.335 4.134 9.25 7.125l2.703 2.758L399 358l-4 2 .938 3.188c1.801 6.464 1.801 6.464 2.062 8.812l-2 3h-3l-1-5-2.75-.312c-3.28-.694-4.859-1.389-7.25-3.688v-2h-2c-.63-10.003-.63-10.003 1.938-14.062.68-.64 1.36-1.28 2.062-1.938z"/><path fill="#F0F5F6" d="M611 492c2.716 5.042 4.037 10.525 5.625 16l.984 3.313.93 3.187.85 2.906C620 520 620 520 620 524h-18c2.021-8.157 4.052-16.31 6.188-24.437l.98-3.747C610 493 610 493 611 492"/><path fill="#172536" d="M736 348h32v2h-30v89h34v1h-36z"/><path fill="#1D2D3B" d="M713 469h17v71h-1v-69h-14v83l-2 1z"/><path fill="#072037" d="M692 587h2v94h38l-2 2h-38z"/><path fill="#091523" d="M803 469h15c2.811 3.087 3.641 4.34 5 8a392.14 392.14 0 0 0 2.375 4.375L827 485l-1 2c-1.342-2.1-2.673-4.204-4-6.312l-1.156-1.803C818 474.34 818 474.34 818 471h-14v83l12-1 1-49h1l1 52h-16z"/><path fill="#0E2638" d="m225 647 21 1v2c13.395 1.765 26.592 2.18 40.08 1.926l3.768-.051 3.375-.07C296 652 296 652 299 654c-23.107 2.503-50.831 3.486-73-5z"/><path fill="#182E3B" d="M847 469h16v87h-17l-3-6 1-2 2 1 1 4 14 1v-82l-14-1z"/><path fill="#5BBCE4" d="M375 375c2.016.129 2.016.129 4 1 1.047 1.777 1.047 1.777 1.75 3.938l.734 2.152C382 384 382 384 382 386h2v7c-3.424 2.107-6.04 2.087-10 2l.035-2.922c.01-1.263.018-2.526.027-3.828l.036-3.797c.04-3.299.04-3.299-.727-5.781L373 377z"/><path fill="#283744" d="M907 509h31l.125 10.125.055 3.157c.03 4.978-.187 9.057-2.18 13.718-.937-3.118-1.057-5.741-.879-8.984l.13-2.554.187-3.212L936 511h-27v9h12v1h-14z"/><path fill="#082433" d="m894 486 3 1-1.437 2.25c-3.575 6.292-2.784 13.244-2.803 20.284-.01 2.195-.04 4.389-.072 6.583-.068 8.947.09 16.771 6.312 23.883-3.868-1.868-6.557-3.335-9-7-1.467-8.607-1.124-17.55-1.062-26.25l.013-3.738c.012-3.004.028-6.008.049-9.012h1l.875-2.875C892 488 892 488 894 486"/><path fill="#0D2433" d="M656 469h17l-1 4v-2h-14v83h-1z"/><path fill="#5CBEE6" d="M344 343c.359 3.23.273 4.612-1.625 7.313-2.998 2.13-4.772 2.087-8.375 1.687-1-1-1-1-1.098-2.848L333 343c4.05-1.35 6.792-.62 11 0"/><path fill="#33404F" d="M692 584c5.587-.05 11.173-.086 16.76-.11 1.9-.01 3.798-.024 5.698-.04 2.735-.025 5.47-.037 8.206-.045l2.558-.032c4.667 0 8.386.432 12.778 2.227-3 2-3 2-5 2v-2h-41z"/><path fill="#0C1E30" d="M521 671c3.113 1.499 6.045 3.212 9 5l2 1v2h4v2c9.716 1.788 9.716 1.788 19.063-.035 2.83-1.41 4.938-.647 7.937.035-4.307 4.307-10.758 3.306-16.5 3.317-9.544-.165-16.442-3.97-23.5-10.317z"/><path fill="#48AAD5" d="M221.688 508.375 224 509c.125 2.375.125 2.375 0 5-2 2-2 2-3.875 2.23l-2.125-.043-2.125-.019C214 516 214 516 212 515l1-6 3 1c3-2 3-2 5.688-1.625"/><path fill="#E3F1F6" d="M702 378h1c.05 4.787.086 9.574.11 14.362.01 1.628.024 3.257.04 4.885.025 2.341.036 4.682.045 7.023l.032 2.206c0 3.737-.098 5.33-2.227 8.524-1-1-1-1-1.114-2.858l.016-2.396.01-2.588.025-2.72.014-2.733c.012-2.235.028-4.47.049-6.705h2z"/><path fill="#5FC0E9" d="M369.75 381.313 372 382c.25 5.625.25 5.625-2 9l-6-1-1-6c2.455-2.273 3.338-3.075 6.75-2.687"/><path fill="#113444" d="m518 603 2 1-1.482 2.842c-2.065 4.846-1.896 9.49-1.811 14.685l.013 2.997c.017 3.138.054 6.276.092 9.414.016 2.136.03 4.272.042 6.408.032 5.218.083 10.436.146 15.654h-2c-.193-6.78-.37-13.562-.537-20.343-.059-2.308-.12-4.615-.187-6.923-.094-3.313-.174-6.627-.253-9.941l-.097-3.135-.061-2.911-.068-2.564c.302-3.254 1.952-4.932 4.203-7.183"/><path fill="#0E2533" d="M564 478c5.147 4.334 5.186 5.743 7 13l-16 5 1-3h5v-2c2.5-1.625 2.5-1.625 5-3-.498-2.756-.498-2.756-2-5a99.984 99.984 0 0 1 0-5"/><path fill="#53B7E3" d="M216 474c6.906.172 10.675 1.581 16 6l-1 4h-5l-1-5-1.687-.375c-2.534-.685-4.892-1.616-7.313-2.625z"/><path fill="#67C3EA" d="M405 564h2l-.691 2.117-.872 2.758-.878 2.742c-.826 2.381-.826 2.381.441 4.383l2-1c-1.382 3.21-2.924 5.05-5.625 7.25l-1.914 1.578L398 585c1-7.856 3.087-14.115 7-21"/><path fill="#0E202E" d="M895 600c2.755.38 3.82.807 5.75 2.875C902 605 902 605 902 608c2.314-.28 4.626-.575 6.938-.875l3.902-.492L916 606l1-2 3 1v2c-2.436.839-4.873 1.671-7.312 2.5l-2.092.723C907.61 611.233 905.173 612 902 612l-.77-1.61c-1.813-3.722-3.561-7.188-6.23-10.39"/><path fill="#0A1B26" d="M925 475c4.488 1.763 6.998 4.703 8.918 9.105.735 1.95 1.413 3.921 2.082 5.895-2.29.837-4.582 1.67-6.875 2.5l-1.973.723C922.227 495 922.227 495 920 495l-2-7 2.125 1.563c3.554 1.776 5.099 1.481 8.875.437a135.37 135.37 0 0 0 4-2c-2.235-4.79-4.489-8.987-8-13"/><path fill="#0A1F2C" d="M603 665c1.132.908 2.255 1.827 3.375 2.75l1.898 1.547C610 671 610 671 610.996 673.067c1.82 3.505 5.44 4.595 9.004 5.933 2.368.538 4.571.798 7 1v2l2 1c-8.508-.274-14.68-2.942-20.93-8.812-2.69-2.987-4.293-5.192-5.07-9.188"/><path fill="#102130" d="M803 469c13.406-1.214 13.406-1.214 16.969 1.5 1.29 2.118 2.168 4.176 3.031 6.5a392.14 392.14 0 0 0 2.375 4.375L827 485l-1 2c-1.342-2.1-2.673-4.204-4-6.312l-1.156-1.803C818 474.34 818 474.34 818 471h-14z"/><path fill="#0D2837" d="M532 350c-1.84 4.518-4.994 7.76-9.125 10.313C521 361 521 361 518 361c1.367-3.15 2.857-5.009 5.5-7.187l1.844-1.543c2.48-1.901 3.446-2.27 6.656-2.27"/><path fill="#102533" d="M693 348c8.022.292 13.166 3.344 18.938 8.848 3.037 3.311 3.037 3.311 4.062 5.152l-1 3-1.066-1.645c-3.545-5.136-6.04-7.354-11.934-9.355l-3-2v-2l-6-1z"/><path fill="#1D3044" d="m857 601 2 1-.035 2.266-.028 2.984-.035 2.953c-.019 2.726-.019 2.726.727 4.969L860 617l-2 3-2-1c-1.812-5.979-1.807-12.387 1-18"/><path fill="#091A2B" d="M831 348h20l-1 3-3.395-.105c-1.472-.029-2.945-.056-4.418-.082l-2.236-.077c-4.23-.147-4.23-.147-7.838 1.776L831 354h-2z"/><path fill="#092336" d="M775 379h2c-.608 5.475-.608 5.475-2.265 7.695-2.25 1.693-3.402 1.585-6.184 1.38l-2.569-.167-2.67-.22-2.705-.186A526.713 526.713 0 0 1 754 387v-1l2.887-.113 3.8-.2 3.762-.175c3.672-.53 5.62-1.288 8.551-3.512z"/><path fill="#0E2534" d="M748 593c4.34.731 5.923 2.717 8.605 6.031 3.067 4.33 4.887 8.552 4.395 13.969-2.562-3.842-4.754-7.341-6.375-11.687-1.306-3.479-1.306-3.479-4.312-4.75L748 596z"/><path fill="#132D46" d="M266 291c-6.342 4.228-15.577 3.122-23 3l1-3c7.428-1.337 14.514-.683 22 0"/><path fill="#1F2F41" d="m534 437 4 1v2h17c-5.1 3.4-11.653 2.591-17.566 1.547-1.827-.458-3.634-.993-5.434-1.547z"/><path fill="#12273D" d="m628 501 3 1c1.203 2.8 1.203 2.8 2.25 6.313l1.078 3.488c.626 2.981.746 4.411-.328 7.199a680.989 680.989 0 0 1-3-6.187l-1.687-3.481c-1.23-3.123-1.611-5.035-1.313-8.332"/><path fill="#0A1E2B" d="M395 680c2.313.113 4.626.241 6.938.375l3.902.21L409 681l1 2c2.35.69 2.35.69 5.063 1.125l2.785.508L420 685v1c-8.99.803-16.613-2.119-25-5z"/><path fill="#072131" d="M458 652c.645 1.84.645 1.84 1 4-2.312 2.563-2.312 2.563-5 5l-2 3h-4c1.477-3.452 3.438-5.65 6.125-8.25l2.195-2.14z"/><path fill="#092430" d="M236 294c-2.69 3.323-6.108 4.443-10 6l-2 1-3-2v-2c1.56-.509 3.123-1.007 4.688-1.5l2.636-.844c2.67-.655 4.94-.774 7.676-.656"/><path fill="#153144" d="m415.066 681.902 2.497.035 2.503.028L422 682v2l3 1v2c-8.193.63-8.193.63-11.562-2L412 683c1-1 1-1 3.066-1.098"/><path fill="#182739" d="M902.61 467.734c10.409.052 10.409.052 15.39 2.266v2h-6v-2h-14c2-2 2-2 4.61-2.266"/><path fill="#091D2C" d="M654 650h1l-.879 5.957c-.26 2.246-.26 2.246.879 5.043l-2.312.75c-2.924 1.36-3.988 2.566-5.688 5.25l-3-1 2.25-2c3.927-3.905 6.019-8.806 7.75-14"/><path fill="#0C2031" d="M569 537c1 3 1 3 .031 5.086-3.487 5.213-6.692 8.604-12.031 11.914l-2-1 3-1v-2h3l1-4h2v-2l3-3c1.176-2.1 1.176-2.1 2-4"/><path fill="#091F31" d="M385 325c6.76 4.092 13.6 9.4 18 16-3 0-3 0-4.648-1.645l-1.727-2.168c-2.64-3.178-4.971-5.194-8.625-7.187v-2l-3-1z"/><path fill="#0E2A3A" d="m532 586 2 3-3 2-2-1-.625 1.875c-1.923 2.972-4.04 3.255-7.375 4.125 3.3-4.14 6.173-7.587 11-10"/><path fill="#0E2634" d="M104 535c1.875.563 1.875.563 4 2 1.25 3.625 1.25 3.625 2 7h2l-1 5c-2.553-2.275-3.841-4.432-5.187-7.562l-1.043-2.38C104 537 104 537 104 535"/><path fill="#5BBFEA" d="M369 368h4l1 6a88.406 88.406 0 0 1-5 1c-1-1-1-1-1.125-3.5C368 369 368 369 369 368"/><path fill="#70CDE4" d="M167 345c-.583 3.225-1.522 4.976-3.812 7.313l-1.52 1.613C160 355 160 355 157.801 354.668L156 354a864.517 864.517 0 0 1 4.375-4.5l2.46-2.531C165 345 165 345 167 345"/><path fill="#0A1C2E" d="m313 537 3 1v3h2v3l3-1-1 3c1.872 3.183 1.872 3.183 4 6l-1 2c-1.301-1.7-2.59-3.411-3.875-5.125l-2.18-2.883c-1.927-2.964-2.99-5.603-3.945-8.992"/><path fill="#0B273C" d="m654 368 2 1v2h-2v25h-1c-.226-3.916-.428-7.833-.625-11.75l-.195-3.367-.157-3.242-.158-2.984c.14-2.767.71-4.312 2.135-6.657"/><path fill="#092032" d="m352 656 12 4v3c1.438 1.688 1.438 1.688 3 3-3.706-.63-6.146-2.277-9.187-4.437l-2.668-1.872C353 658 353 658 352 656"/><path fill="#0A1C2C" d="M919 535c0 3 0 3-3 8l-15-1v-1l2.668-.297 3.52-.453 3.48-.422c3.685-.916 5.573-2.271 8.332-4.828"/><path fill="#091E2B" d="M164 616c3.487 1.11 6.775 2.263 10 4v3l2.438.875C179 625 179 625 180 627c-3.832-1.378-6.927-3.152-10.25-5.5l-2.64-1.844C165 618 165 618 164 616"/><path fill="#0A1E2D" d="M555 530h5v3l-2.437.688L555 535c-.894 2.548-.894 2.548-1 5l-4-1 1.938-2.812c2.148-3.03 2.148-3.03 3.062-6.188"/><path fill="#1A2C3F" d="M879 483h2l-1 7h-2v13h-1c-1.05-7.589-1.354-13.023 2-20"/><path fill="#E7EBF1" d="M611 492c1.648 2.967 2.443 5.656 3 9-1.875 1.063-1.875 1.063-4 2l-2-1c.308-1.48.622-2.96.938-4.437l.527-2.497C610 493 610 493 611 492"/><path fill="#E3EFF4" d="m446 681 1 2h-2l-.875 1.938C443 687 443 687 441 688c-2.672.134-5.323.043-8 0v-2l2.082-.586 2.73-.789 2.708-.773c2.685-.805 2.685-.805 5.48-2.852"/><path fill="#06192A" d="M563 681c-2.943 2.943-5.115 2.973-9.234 3.098l-3.516-.035-3.547-.028L544 684v-1l1.828-.148 2.422-.227 2.39-.21c2.39-.302 2.39-.302 4.454-1.477 2.809-1.382 4.938-.613 7.906.062"/><path fill="#0A1D2F" d="m628 602-2.25 1.563c-3.286 2.912-4.738 5.561-6.75 9.437l-2-4c3.295-5.614 3.295-5.614 6.625-7.437C626 601 626 601 628 602"/><path fill="#142D41" d="m747 672 2 1c-1 3-1 3-3.285 4.387l-2.778 1.3-2.785 1.325L738 681l-1-3 2.875-.812c3.378-.938 3.378-.938 5.125-4.188z"/><path fill="#182F44" d="M453 438h3l1 12-2 1-1-7h-2z"/><path fill="#73CCE6" d="M198 323v3a158.623 158.623 0 0 1-5 3v2c-3 1-3 1-5.187.063L186 330c1.624-.98 3.25-1.959 4.875-2.937l2.742-1.653A70.76 70.76 0 0 1 198 323"/><path fill="#092430" d="M515 656h2c3.077 6.4 3.077 6.4 2.688 9.438L519 667c-3.442-2.66-3.995-5.903-5-10z"/><path fill="#08202B" d="M564 478c4.814 4.054 5.885 7.022 7 13l-3-1 1-3h-2l-2-3-1-1a99.984 99.984 0 0 1 0-5"/><path fill="#082038" d="m303.563 450.75 2.44.484L308 452l1 3-1.672-.496c-2.594-.562-4.926-.601-7.578-.567l-2.703.028L295 454l2-1v-2c2.586-1.293 3.764-.843 6.563-.25"/><path fill="#112B41" d="M878 681h14l1 2-14 1z"/><path fill="#12283C" d="M664 596c4.23 1.746 5.428 3.864 7.316 7.89.956 2.95.563 5.18-.316 8.11-1.5-1.125-1.5-1.125-3-3l.063-2.75c-.086-4.424-1.698-6.554-4.063-10.25"/><path fill="#0A1E2F" d="M308 595c4.252 3.362 7.638 6.748 11 11l-1 2c-4.55-2.214-6.026-4.395-8-9l-1.187-2.375z"/><path fill="#0C2335" d="M642 600h6v2h2l.313 1.938L651 606l3 1-1 2c-1.46-1.123-2.918-2.249-4.375-3.375l-2.46-1.898C644 602 644 602 642 600m8 1 2 1Z"/><path fill="#142F3E" d="M716 364c2.836 3.206 3.738 5.727 4 10-.937 2.875-.937 2.875-2 5h-1l-.184-2.3-.254-3.012c-.08-.987-.162-1.973-.246-2.989-.234-2.793-.234-2.793-1.316-5.699z"/><path fill="#08232F" d="m184 313 2 1c-4.088 4.293-6.979 6.316-13 7 3.284-3.678 6.628-5.814 11-8"/><path fill="#061727" d="M544 599a995.39 995.39 0 0 1 5.75-.062l3.234-.036c2.576.084 4.607.222 7.016 1.098 1.75 2.063 1.75 2.063 3 4l-1 2-2.074-1.922c-3.378-2.4-5.656-2.833-9.739-3.328l-3.519-.453L544 600z"/><path fill="#0A2031" d="M891 528h2l1.313 3.75c1.178 3.166 2.44 5.681 4.687 8.25-3.868-1.868-6.557-3.335-9-7 .375-2.687.375-2.687 1-5"/><path fill="#0C2236" d="M333 501h2c-.363 2.687-.669 4.559-2.312 6.75-1.887 1.397-3.39 1.854-5.688 2.25 1.528-3.438 3.502-6.19 6-9"/><path fill="#132634" d="M659 674h3v2c-2.047 1.508-2.047 1.508-4.75 3.125l-2.672 1.633C652 682 652 682 648 682v-2l3.313-.937A169.836 169.836 0 0 0 658 677z"/><path fill="#0B2235" d="M759 658c1 3 1 3 .004 5.262l-1.442 2.426-1.433 2.449L755 670c-2-3.75-2-3.75-2-6h3v-3c1.5-1.687 1.5-1.687 3-3"/><path fill="#0A2028" d="M124 573c3 1.813 3 1.813 6 4v3h2l-1 4a790.547 790.547 0 0 1-3.5-4.375l-1.969-2.46C124 575 124 575 124 573"/><path fill="#5DBFEB" d="m221 511 1 2-1 2h-9l1-3z"/><path fill="#0A212F" d="M428 683c2.962.613 4.38 1.254 7 3-2.229 1.114-3.53 1.165-6 1.188l-2.125.042C425 687 425 687 423 685h5z"/><path fill="#16354D" d="M429 671h3v3c-5.959 1.882-9.142 2.197-15 0v-1l12-1z"/><path fill="#133145" d="M870 655v2h-2v2h-6c.313-1.937.313-1.937 1-4 3.133-1.044 3.99-.934 7 0"/><path fill="#071D30" d="M481 641c.834 2.385 1.119 3.633.328 6.07l-1.078 2.055-1.047 2.07C478 653 478 653 475 655l1-6h2l.375-1.75c.631-2.273 1.514-4.175 2.625-6.25"/><path fill="#0C2639" d="M891 584v1h-14v2h-4v-2c5.963-2.816 11.668-1.758 18-1"/><path fill="#0B2132" d="m894 486 3 1-1.437 2.25c-1.342 2.36-2.075 4.116-2.563 6.75h-2c-.37-6.523-.37-6.523 1.5-8.937z"/><path fill="#112334" d="m321 474 3 1c1.188 2.563 1.188 2.563 2 5l2-2 1 8c-3.277-3.1-5.931-5.971-8-10z"/><path fill="#102835" d="M702 413c1.188 1.625 1.188 1.625 2 4-1.375 3.25-1.375 3.25-3 6h-3c1.11-3.487 2.263-6.775 4-10"/><path fill="#0A1D30" d="M891 642c4.615 1.319 8.099 3.214 12 6l-1 4-1.562-2.25c-2.913-3.286-5.562-4.738-9.438-6.75z"/><path fill="#0B1A30" d="M421 584c1.75-.054 3.5-.093 5.25-.125l2.953-.07c2.817.196 4.406.75 6.797 2.195-3.53 1.202-6.129.795-9.75.063l-2.984-.59L421 585z"/><path fill="#398CAE" d="M328 527h2l-.062 2.813c-.096 3.21-.096 3.21 1.062 6.187l-2 1c-3.065-4.414-3.065-4.414-2.75-7.25C327 528 327 528 328 527"/><path fill="#389BB8" d="m136 379 2 1-2 6h-2l-1 2-3 2c1.45-4.11 3.511-7.433 6-11"/><path fill="#112537" d="m575 670 2 1c-1.393 3.367-2.979 4.986-6 7l-2-1c1.313-2.5 1.313-2.5 3-5h3z"/><path fill="#041928" d="m563 660 1 4c-3.663 2.478-6.61 3.49-11 4v-2l1.68-.805 2.195-1.07 2.18-1.055c2.096-1.036 2.096-1.036 3.945-3.07"/><path fill="#112637" d="M866 631c3.064-.255 4.632-.219 7.313 1.375L875 634v2c-4.314-.48-6.166-1.746-9-5"/><path fill="#E7F0F5" d="M636.188 599.938 640 600l-3 1v2l-7 1-1-3c2.75-.917 4.36-1.109 7.188-1.062"/><path fill="#063852" d="m404 579 1 2c-1.125 2.563-1.125 2.563-3 5-2.687.813-2.687.813-5 1l2.938-3.437 1.652-1.934A49.663 49.663 0 0 1 404 579"/><path fill="#D9E8EE" d="M568 532h4c1.215 6.319 1.215 6.319.25 9.375C571 543 571 543 568 544l3-11z"/><path fill="#0F222F" d="M599 480h2l-1 8h-2l-2 4c.508-4.318 1.197-8.033 3-12"/><path fill="#013157" d="m272 452 2 1c-1 3-1 3-2.812 3.938L269 458a89.782 89.782 0 0 0-4 4l-2-1z"/><path fill="#E8F1F6" d="m408 610 1 2a243.553 243.553 0 0 1-2.75 3.438l-1.547 1.933c-1.9 1.817-3.139 2.233-5.703 2.629 1.382-3.21 2.924-5.05 5.625-7.25l1.914-1.578z"/><path fill="#132635" d="M564 610c3.625-.201 5.865.142 9 2-3.088 1.765-4.233 2-8 2z"/><path fill="#43A4CE" d="M217 461h2v3h2v-2h2v5c-2.169-.506-4-1-6-2z"/><path fill="#081C2E" d="M871 419c2.737 2.737 3.162 5.26 4 9-.375 2.438-.375 2.438-1 4l-2-1c-.414-2.723-.414-2.723-.625-6.062l-.227-3.348z"/><path fill="#3D9DC5" d="M266 329c1.43 2.354 2.087 3.48 1.625 6.25L267 337l-5-1 1-3h3z"/><path fill="#0C263B" d="M468 632h2c.372 7.566.372 7.566-1.512 9.762L467 643a757.916 757.916 0 0 1-.062-4.937l-.036-2.778C467 633 467 633 468 632"/><path fill="#EBF3F6" d="m433 603 7 5-1 4v-3l-1.812-.312c-2.47-.777-3.51-1.759-5.188-3.688z"/><path fill="#04192B" d="M535 540h14l-1 3h-12zm10 3 2 1Z"/><path fill="#5FC1ED" d="m216 474 7 1 1 3-7-1z"/><path fill="#153048" d="m97 429 1 2 2 1a108.817 108.817 0 0 1-1 7l-2 1 .063-2.375c.124-2.606.124-2.606-1.063-4.625.438-2.125.438-2.125 1-4"/><path fill="#DDE7EF" d="M840 371c1.945 2.918 2.453 4.625 3 8l-5 1z"/><path fill="#0C2331" d="m679 348-3 1-1 3c-2.062.688-2.062.688-4 1v-4c2.928-.976 4.956-1.082 8-1"/><path fill="#47A9D2" d="M272 341h1c.081 2.083.14 4.166.188 6.25l.105 3.516c-.313 3.457-.95 4.75-3.293 7.234v-6h2z"/><path fill="#F5F4FA" d="M883 684h11c-3.287 1.644-5.48 2.413-9 3z"/><path fill="#0A1C29" d="M286 564c2.335 2.257 4.187 4.28 6 7v3h-2v-2h-2z"/><path fill="#79C6E2" d="m414 564 1 3c-1.215 1.824-1.215 1.824-2.937 3.688l-1.715 1.886L409 574c0-2.621.313-4.51 1-7h3z"/><path fill="#183340" d="M111 547c2 1 2 1 2.633 2.848l.492 2.215.508 2.222L115 556l-2 1c-3.077-5.415-3.077-5.415-2.687-8.375z"/><path fill="#091D2B" d="M447 533c1.236 3.708.568 4.675-.937 8.188l-1.153 2.73L444 546c-1.46-4.38.204-7.32 2.125-11.375z"/><path fill="#152D40" d="m836 532 4 2v6l-2 1z"/><path fill="#288AB4" d="M114 424h3c.688 1.625.688 1.625 1 4-1.437 3.25-1.437 3.25-3 6-1.158-3.473-1.069-6.36-1-10"/><path fill="#0C2535" d="m515 412 1 4 .688 2.063C517 420 517 420 515 423c-2.215-6.4-2.215-6.4-1.125-9.437z"/><path fill="#0E2131" d="M440 393c2 1 2 1 3.125 3.375C444 399 444 399 444 402l-3-1c-1.354-2.709-1.065-5.01-1-8"/><path fill="#103247" d="m142 348 2 2-3 1-1 3-4-1c1.933-2.025 3.632-3.421 6-5"/><path fill="#E7EDF3" d="M683 344h7v3h-8z"/><path fill="#0D2636" d="M440 670v2l-8 1v-2c3.067-1.862 4.597-2.215 8-1"/><path fill="#152B3E" d="M581 544h1v7l-4 1c.547-3.375 1.055-5.082 3-8"/><path fill="#122333" d="m806 429 2 1c-.75 6.75-.75 6.75-3 9-1.312-3.937-.243-6.125 1-10"/><path fill="#0B2133" d="m117 379 2 1c-.312 2.375-.312 2.375-1 5l-3 2c0-3.767.235-4.912 2-8"/><path fill="#3D97BE" d="M399 359.313c2 .687 2 .687 4 2.687l-1 3-2-3h-4l-1-2c2-1 2-1 4-.687"/><path fill="#42A3CD" d="m258 352 5 2v2h-7z"/><path fill="#112338" d="M621 680h6v2l2 1-9-1z"/><path fill="#041C35" d="m541 666 11 1c-2 2-2 2-5.125 2.125L544 669v-2z"/><path fill="#E6EEF5" d="M921 661h2c.75 1.688.75 1.688 1 4-1.937 2.75-1.937 2.75-4 5l-2-1z"/><path fill="#11242E" d="M853 658c2.063.438 2.063.438 4 1l-1 2h-2l1 5-2-1c-.687-3-.687-3-1-6z"/><path fill="#1A2E40" d="m382 658 7 3-2 2-6-2z"/><path fill="#E8EFF5" d="M337 645v3c-2.875.125-2.875.125-6 0l-2-2c2.928-.976 4.956-1.082 8-1"/><path fill="#1E3C50" d="m432 598 1 2c-3.937 1.312-6.125.243-10-1 3.32-2.09 5.268-2.21 9-1"/><path fill="#0A1F33" d="M567 587c3.937 1.312 6.227 2.92 9 6-5.492-.61-5.492-.61-7.875-2.437C567 589 567 589 567 587"/><path fill="#092D4F" d="M434 528h1c.293 6.055.293 6.055 0 8l-3 2c.14-1.48.288-2.959.438-4.437.08-.824.162-1.648.246-2.497C433 529 433 529 434 528"/><path fill="#102135" d="M588 517h1c.372 6.574.372 6.574-1.512 8.73-.49.42-.982.838-1.488 1.27.14-1.48.288-2.959.438-4.437.08-.824.162-1.648.246-2.497C587 518 587 518 588 517"/><path fill="#EBFCFF" d="m819 504 3 4c-.812 3.75-.812 3.75-2 7h-1z"/><path fill="#1A2A42" d="M695 364c2.375.188 2.375.188 5 1 1.313 2.563 1.313 2.563 2 5l-2 1z"/><path fill="#142C43" d="m865 676 6 1 1 3-3 1a181.008 181.008 0 0 1-4-4z"/><path fill="#D1DCE6" d="M902 652h1c-.087 1.46-.195 2.918-.312 4.375l-.176 2.46C902 661 902 661 899 663c0-3 0-3 2-6a75.316 75.316 0 0 0 1-5"/><path fill="#0A1C2A" d="M566 654c7.75.75 7.75.75 10 3h-8v-2z"/><path fill="#041D2B" d="m526 590 2 1c-.687 1.938-.687 1.938-2 4-2.625.75-2.625.75-5 1z"/><path fill="#F0F9FB" d="M598 538h10v1l-3.25.375c-3.129.521-5.085 1.026-7.75 2.625z"/><path fill="#E8F9FB" d="m530 490 2 4h-2l.625 2.375L531 499l-2 2a585.281 585.281 0 0 1-.062-4.375l-.036-2.46C529 492 529 492 530 490"/><path fill="#243547" d="m904.75 482.938 2.422.027L909 483v1c-1.603.337-3.208.67-4.812 1l-2.708.563C899 486 899 486 896 486v-2c2.995-.872 5.636-1.108 8.75-1.062"/><path fill="#3897C6" d="m245 309-1 3c-2.867-.573-3.861-.861-6-3 2.667-1.333 4.167-.671 7 0"/><path fill="#152D39" d="m463 646 2 1a125.024 125.024 0 0 1-4 6h-2c1.074-2.915 1.778-4.778 4-7"/><path fill="#031B29" d="M881 619c3.912 1.156 6.875 2.355 10 5l-10-2z"/><path fill="#E2ECEF" d="M595 547h2c.25 2.313.25 2.313 0 5-2 1.813-2 1.813-4 3z"/><path fill="#122636" d="M879 483h2l-1 7h-3z"/><path fill="#4CAFDB" d="M223 475a56.54 56.54 0 0 1 7 4h-4l-1 2v-2l-3-1h2z"/><path fill="#E5ECF2" d="M711 433c-1.049 2.622-1.65 3.794-4.125 5.25L705 439v-3c3.333-3 3.333-3 6-3"/><path fill="#2A8CB4" d="M436 433c2 3 2 3 2 5h2l-1 6c-2.12-3.534-2.532-6.944-3-11"/><path fill="#E8F2F8" d="M578 419h2c-.35 3.242-.562 4.615-3.062 6.813L575 427c1.875-6.875 1.875-6.875 3-8"/><path fill="#2C8AB2" d="M404 412c1.875.25 1.875.25 4 1 1.25 2.063 1.25 2.063 2 4l-3-1v-2l-4 2z"/><path fill="#0E2932" d="m105 403 3 1v4l-4 1z"/><path fill="#192938" d="m654 368 2 1v2h-2v6l-2-1c.875-6.875.875-6.875 2-8"/><path fill="#0F1F29" d="m195 307 2 1-2.437 1.375c-2.652 1.372-2.652 1.372-3.563 3.625h-3c1-3 1-3 3.938-4.75z"/></svg>